<?xml version="1.0" standalone="no"?>
<!DOCTYPE svg PUBLIC "-//W3C//DTD SVG 20010904//EN"
 "http://www.w3.org/TR/2001/REC-SVG-20010904/DTD/svg10.dtd">
<svg version="1.0" xmlns="http://www.w3.org/2000/svg"
 width="1440.000000pt" height="500.000000pt" viewBox="0 0 1440.000000 500.000000"
 preserveAspectRatio="xMidYMid meet">

<g transform="translate(0.000000,500.000000) scale(0.100000,-0.100000)"
fill="#000000" stroke="none">
<path d="M0 2500 l0 -2500 7200 0 7200 0 0 2500 0 2500 -7200 0 -7200 0 0
-2500z m12008 1852 c4 -29 27 -23 26 7 -1 25 -11 33 104 -81 74 -74 167 -255
175 -342 4 -49 10 -63 34 -82 43 -35 4 -31 -50 6 -92 62 -224 85 -319 56 -111
-33 -125 -49 -91 -106 15 -25 15 -34 3 -69 -7 -23 -10 -44 -7 -48 9 -8 47 26
47 42 0 8 12 12 30 11 31 -1 36 -10 21 -34 -6 -9 2 -26 25 -50 26 -29 41 -37
71 -38 21 0 44 5 51 13 7 7 25 13 38 13 14 0 39 13 57 30 18 16 39 30 47 30
21 0 40 47 33 81 -5 26 -3 29 21 29 27 0 76 -39 76 -61 0 -6 6 -25 14 -42 26
-57 47 -142 36 -145 -6 -2 -8 -8 -4 -13 3 -5 -2 -12 -10 -15 -9 -3 -16 -14
-16 -24 0 -11 -9 -34 -20 -53 -12 -19 -19 -39 -18 -44 2 -4 -9 -22 -24 -38
-16 -16 -28 -40 -28 -52 0 -13 -5 -23 -11 -23 -7 0 -9 -10 -5 -25 5 -18 2 -25
-8 -25 -8 0 -17 -7 -20 -16 -9 -23 -7 -34 5 -34 6 0 17 -7 25 -15 9 -8 11 -15
6 -15 -5 0 -9 -7 -9 -15 0 -11 4 -12 14 -4 10 9 13 6 13 -15 0 -18 -5 -26 -17
-27 -11 0 -13 -3 -5 -6 20 -8 14 -56 -13 -96 -14 -20 -30 -37 -34 -37 -5 0
-18 -17 -28 -37 -23 -44 -154 -137 -217 -154 -49 -13 -120 -5 -180 21 -38 16
-46 25 -54 57 -22 87 -23 95 -11 87 33 -20 189 17 189 46 0 5 13 22 30 36 16
15 32 35 35 44 3 11 21 21 43 26 l37 7 -60 12 c-33 7 -85 20 -115 29 -72 22
-197 36 -226 26 -24 -10 -24 -10 -40 85 -3 22 -13 50 -20 62 -12 20 -8 18 31
-9 31 -22 45 -39 45 -55 0 -13 6 -23 13 -23 27 0 57 13 57 24 0 26 21 33 66
24 57 -12 94 8 94 51 0 37 -10 45 -27 21 -18 -26 -62 -26 -141 0 -35 12 -81
19 -109 17 l-48 -2 0 75 c0 87 23 182 37 156 14 -25 26 -19 54 25 19 31 23 44
14 49 -9 6 -10 15 -2 36 6 16 11 24 11 17 1 -7 8 -10 16 -7 20 8 9 23 -29 41
-30 14 -9 12 27 -2 13 -5 17 -2 17 14 0 36 -26 76 -69 104 -30 20 -41 34 -41
52 0 14 -5 25 -10 25 -13 0 -4 42 21 97 10 24 19 52 19 62 0 11 5 23 10 26 6
3 10 16 10 29 0 39 53 99 120 135 35 19 59 28 55 21 -5 -8 5 -4 22 8 17 12 39
22 48 22 9 0 13 5 9 11 -4 7 1 10 12 7 11 -2 20 -13 22 -26z m337 -462 c3 -5
1 -10 -4 -10 -6 0 -11 5 -11 10 0 6 2 10 4 10 3 0 8 -4 11 -10z m-115 -36 c22
-9 40 -23 40 -31 0 -11 -4 -13 -12 -6 -7 6 -31 13 -53 17 -58 10 -75 16 -75
27 0 14 56 11 100 -7z m-86 -155 c-3 -5 -14 -9 -26 -9 -14 0 -18 5 -14 16 3 9
6 20 6 26 0 6 9 3 20 -7 11 -10 17 -22 14 -26z m-225 -615 c-6 -7 -15 -12 -19
-9 -4 3 -13 -2 -20 -10 -14 -17 -37 -10 -51 17 -10 19 -8 20 35 17 25 -3 46 0
46 4 0 5 5 5 10 2 8 -5 7 -11 -1 -21z m-109 -5 c0 -6 -4 -7 -10 -4 -5 3 -10
11 -10 16 0 6 5 7 10 4 6 -3 10 -11 10 -16z m200 17 c0 -3 -4 -8 -10 -11 -5
-3 -10 -1 -10 4 0 6 5 11 10 11 6 0 10 -2 10 -4z m268 -686 c5 14 32 -7 32
-26 0 -10 -7 -10 -37 2 -46 19 -70 40 -28 24 21 -8 31 -8 33 0z m82 -540 c0
-5 -5 -10 -11 -10 -5 0 -7 5 -4 10 3 6 8 10 11 10 2 0 4 -4 4 -10z m-420 -81
c0 -11 3 -18 8 -16 4 3 7 -27 7 -66 0 -47 6 -84 17 -108 9 -19 15 -45 11 -57
-3 -12 -1 -28 4 -35 15 -19 26 -157 12 -157 -6 0 -9 -7 -6 -14 4 -10 1 -13 -7
-10 -19 7 -26 -20 -15 -58 12 -42 11 -42 -3 -30 -17 13 -41 -11 -26 -26 6 -6
6 -12 -1 -16 -6 -4 -11 -3 -11 2 0 5 -9 12 -19 15 -14 3 -18 1 -14 -9 6 -15
-20 -10 -44 9 -9 7 -13 4 -14 -9 0 -11 -3 -14 -5 -7 -3 6 13 65 34 130 29 84
39 128 35 152 -3 19 0 79 7 133 10 71 10 111 3 143 -7 30 -7 47 0 54 14 14 27
4 27 -20z m441 -22 c20 -36 -39 -75 -69 -45 -18 18 -14 45 10 67 23 22 39 16
59 -22z m-506 -267 c3 -5 2 -10 -4 -10 -5 0 -13 5 -16 10 -3 6 -2 10 4 10 5 0
13 -4 16 -10z m2285 7 c0 -2 -15 -16 -32 -33 l-33 -29 29 33 c28 30 36 37 36
29z m-2290 -43 c0 -8 5 -12 11 -8 7 4 9 -2 7 -17 -6 -42 -42 -33 -53 14 -6 23
-4 27 14 27 12 0 21 -6 21 -16z m-10 -79 c11 -13 10 -14 -4 -9 -9 3 -16 10
-16 15 0 13 6 11 20 -6z m122 -190 c3 -13 1 -22 -3 -19 -9 5 -13 44 -5 44 2 0
6 -11 8 -25z m1170 -54 c9 -9 19 -36 21 -61 4 -39 14 -67 58 -165 5 -11 13
-27 18 -35 5 -8 19 -40 31 -70 12 -30 36 -69 53 -86 91 -90 103 -212 25 -258
-27 -17 -29 -21 -23 -59 10 -56 21 -76 52 -88 21 -8 23 -12 13 -24 -16 -20
-44 -20 -36 0 3 8 1 15 -4 15 -18 0 -20 -20 -4 -51 12 -24 13 -33 4 -39 -7 -4
-9 -13 -6 -19 5 -8 -3 -11 -23 -9 -28 2 -46 18 -20 18 8 0 8 5 -1 15 -18 21
-47 19 -53 -5 -3 -11 -13 -20 -24 -20 -15 0 -16 2 -3 11 11 8 5 9 -25 4 -22
-4 -50 -8 -62 -9 -11 0 -19 -5 -15 -10 3 -5 -1 -7 -9 -4 -12 5 -14 -1 -12 -21
5 -35 -12 -60 -29 -43 -9 9 -9 12 0 12 7 0 12 13 12 30 0 22 -5 30 -18 30 -10
0 -22 4 -28 9 -5 5 -18 12 -29 15 -19 5 -21 1 -23 -49 -1 -45 2 -56 18 -65 17
-9 20 -8 20 10 0 11 3 20 8 20 16 0 52 -32 52 -46 0 -8 5 -14 11 -14 8 0 8 -4
0 -14 -9 -10 -20 -11 -51 -2 -31 8 -46 7 -61 -3 -25 -15 -92 -7 -127 15 -13 9
-31 13 -40 10 -20 -7 -47 40 -30 51 7 4 5 11 -6 19 -10 7 -16 22 -14 33 2 14
-10 33 -37 58 -56 52 -85 96 -85 128 0 15 -9 34 -21 44 -23 18 -48 117 -49
189 0 56 36 96 81 90 23 -4 29 -1 24 10 -7 19 23 68 52 83 12 7 21 14 18 17
-2 3 -12 -1 -21 -9 -16 -13 -16 -12 -6 7 13 24 77 58 92 49 6 -4 10 10 10 33
0 42 13 58 67 86 42 21 76 20 88 -3 38 -71 60 -109 78 -131 l19 -25 -7 25 c-4
14 -18 45 -30 70 -27 54 -50 167 -42 201 14 54 105 72 149 30z m-1335 -53 c-3
-8 -6 -5 -6 6 -1 11 2 17 5 13 3 -3 4 -12 1 -19z m73 -19 c-7 -12 -17 -18 -27
-15 -8 3 -22 6 -31 6 -10 0 -12 3 -6 9 8 8 19 11 67 20 4 0 3 -8 -3 -20z
m1345 11 c3 -5 1 -10 -4 -10 -6 0 -11 5 -11 10 0 6 2 10 4 10 3 0 8 -4 11 -10z
m450 -52 c0 -13 -8 -36 -16 -53 -9 -16 -26 -63 -38 -102 -12 -40 -23 -73 -25
-73 -3 0 -11 -3 -19 -6 -31 -11 -39 31 -21 97 27 95 122 203 119 137z m-1815
-48 c0 -5 -5 -10 -11 -10 -5 0 -7 5 -4 10 3 6 8 10 11 10 2 0 4 -4 4 -10z
m1758 -265 c2 -11 12 -29 22 -40 21 -23 27 -51 16 -82 -4 -13 -1 -36 9 -60 19
-44 25 -178 9 -206 -9 -16 -14 -11 -45 33 -59 88 -71 115 -60 142 5 14 6 29 1
34 -5 5 -12 36 -15 70 -7 55 -5 63 15 82 14 13 18 22 11 27 -16 9 -2 27 17 23
9 -2 18 -12 20 -23z m-152 -360 c-8 -22 21 -47 46 -40 l23 7 -22 -16 c-12 -9
-29 -13 -39 -9 -14 5 -16 2 -12 -15 4 -12 2 -22 -3 -22 -5 0 -11 11 -15 25 -3
14 -10 25 -15 25 -10 0 -12 40 -3 64 5 12 9 13 25 3 11 -7 17 -17 15 -22z"/>
<path d="M11892 1348 c-18 -18 -15 -25 19 -37 29 -10 30 -9 27 17 -3 29 -26
40 -46 20z"/>
<path d="M11880 1270 c6 -11 16 -20 22 -20 6 0 3 9 -7 20 -10 11 -20 20 -22
20 -2 0 1 -9 7 -20z"/>
<path d="M11855 1430 c3 -5 11 -10 16 -10 6 0 7 5 4 10 -3 6 -11 10 -16 10 -6
0 -7 -4 -4 -10z"/>
<path d="M12843 757 c18 -29 41 -64 52 -78 25 -31 47 -83 71 -164 9 -33 19
-54 22 -47 6 19 -26 110 -64 180 -19 34 -34 69 -34 77 0 8 -8 30 -17 50 -12
25 -23 35 -39 35 -22 0 -22 -1 9 -53z"/>
<path d="M13113 728 c3 -7 17 -39 30 -71 14 -33 27 -55 30 -50 7 10 -48 133
-59 133 -3 0 -4 -6 -1 -12z"/>
<path d="M12730 525 c0 -33 24 -80 50 -98 23 -16 53 -84 46 -103 -3 -8 -1 -24
4 -36 7 -19 9 -14 9 26 1 38 -9 68 -45 142 -47 96 -64 114 -64 69z"/>
<path d="M13197 353 c-11 -3 -28 -14 -39 -25 -20 -20 -20 -20 9 -16 15 2 28
-1 28 -7 0 -5 4 -15 8 -22 5 -8 -2 -18 -18 -29 -13 -9 -22 -21 -18 -27 4 -6
11 -4 18 6 7 10 26 17 42 17 39 0 50 32 25 74 -19 32 -27 36 -55 29z"/>
</g>
</svg>
