<?xml version="1.0" standalone="no"?>
<!DOCTYPE svg PUBLIC "-//W3C//DTD SVG 20010904//EN"
 "http://www.w3.org/TR/2001/REC-SVG-20010904/DTD/svg10.dtd">
<svg version="1.0" xmlns="http://www.w3.org/2000/svg"
 width="1280.000000pt" height="1280.000000pt" viewBox="0 0 1280.000000 1280.000000"
 preserveAspectRatio="xMidYMid meet">

<g transform="translate(0.000000,1280.000000) scale(0.100000,-0.100000)"
fill="#000000" stroke="none">
<path d="M1605 9726 c-5 -2 -44 -12 -85 -21 -234 -53 -447 -255 -501 -475 -21
-87 -17 -234 10 -304 79 -212 244 -341 686 -539 121 -54 363 -157 370 -157 12
0 290 -139 371 -186 411 -237 603 -516 621 -904 13 -280 -58 -524 -214 -735
-149 -201 -401 -385 -628 -458 -243 -78 -564 -81 -817 -6 -293 86 -587 326
-736 599 -119 220 -160 497 -107 735 9 39 18 81 21 96 6 24 2 26 -138 71 -97
30 -145 42 -149 34 -9 -14 -34 -120 -50 -206 -18 -94 -15 -337 4 -446 53 -295
179 -528 412 -759 291 -291 598 -432 1017 -467 428 -35 862 103 1170 373 l66
59 521 0 521 0 0 -1514 0 -1514 23 -6 c29 -8 261 -8 281 0 15 6 16 149 16
1520 l0 1514 510 0 510 0 0 150 0 150 -1060 0 c-586 0 -1060 4 -1060 9 0 4 18
41 40 80 70 129 122 289 144 448 13 91 19 111 58 173 l43 70 558 0 557 0 0
-312 c0 -172 4 -319 9 -326 5 -8 22 -12 42 -10 l34 3 3 1223 2 1222 -82 0
c-96 0 -69 25 -210 -200 -89 -142 -184 -291 -286 -450 -33 -52 -78 -122 -98
-155 -79 -125 -349 -553 -389 -615 -22 -36 -72 -114 -111 -173 -38 -59 -74
-117 -80 -128 -17 -30 -34 -46 -34 -32 0 71 -34 245 -67 343 -63 186 -158 336
-313 491 -211 212 -455 355 -995 584 -472 200 -622 293 -690 424 -25 49 -18
160 15 224 27 55 94 121 160 160 163 95 439 68 562 -55 l39 -39 132 51 c72 29
135 54 139 56 13 8 -37 79 -98 139 -73 70 -187 134 -294 165 -56 16 -112 22
-220 26 -80 2 -149 2 -155 0z m2988 -1689 c-1 -446 -3 -818 -3 -824 0 -20
-1040 -19 -1040 0 0 8 13 33 29 58 15 24 120 188 231 364 111 176 220 347 241
380 120 188 426 673 471 747 29 48 58 88 63 88 7 0 9 -276 8 -813z"/>
<path d="M5020 7685 l0 -1225 438 0 c240 0 469 5 507 10 77 11 166 41 234 79
60 33 165 134 211 201 139 207 142 488 7 692 -77 116 -194 211 -312 254 -32
12 -60 25 -62 30 -1 5 16 20 38 34 104 64 219 225 255 360 23 87 23 245 0 325
-49 166 -180 326 -329 398 -129 63 -163 67 -599 67 l-388 0 0 -1225z m845
1120 c131 -34 276 -147 338 -262 35 -66 67 -190 67 -263 0 -71 -32 -197 -65
-258 -58 -107 -172 -206 -290 -253 -59 -23 -68 -24 -432 -27 l-373 -3 0 540 0
541 348 0 c280 0 359 -3 407 -15z m134 -1170 c105 -22 185 -67 267 -149 82
-82 126 -164 150 -276 51 -243 -77 -497 -305 -606 -98 -47 -171 -53 -603 -54
l-398 0 0 550 0 550 409 0 c324 0 424 -3 480 -15z"/>
<path d="M6750 7685 l0 -1225 40 0 40 0 2 588 3 587 365 2 c201 2 370 -1 375
-5 6 -4 43 -72 84 -152 41 -80 84 -163 96 -185 12 -22 60 -112 105 -200 46
-88 106 -205 135 -260 29 -55 83 -158 120 -230 37 -71 73 -133 79 -137 14 -9
86 -10 86 -2 0 7 -67 137 -305 594 -255 489 -297 571 -294 574 2 1 42 13 89
25 206 56 365 204 440 411 21 56 24 84 24 200 1 125 -1 141 -28 213 -77 211
-263 372 -473 413 -58 11 -175 14 -529 14 l-454 0 0 -1225z m994 1120 c100
-26 166 -65 246 -145 79 -79 129 -163 149 -250 15 -64 13 -226 -3 -286 -42
-157 -178 -306 -335 -365 -94 -35 -161 -40 -571 -37 l-395 3 -3 548 -2 547
428 0 c349 0 438 -3 486 -15z"/>
<path d="M8512 7688 l3 -1223 40 0 40 0 3 1223 2 1222 -45 0 -45 0 2 -1222z"/>
<path d="M8922 7688 l3 -1223 40 0 40 0 5 1175 5 1175 91 -150 c105 -174 699
-1166 724 -1210 31 -54 109 -183 133 -222 14 -21 118 -195 232 -388 115 -192
215 -358 224 -368 12 -14 27 -17 80 -15 l66 3 0 1220 0 1220 -42 3 -43 3 -1
-1138 c-1 -626 0 -1153 1 -1170 1 -18 -3 -33 -9 -33 -5 0 -231 370 -502 823
-271 452 -586 977 -699 1167 l-207 345 -72 3 -71 3 2 -1223z"/>
<path d="M12267 8843 c-51 -79 -274 -431 -547 -863 -106 -168 -212 -334 -235
-370 -56 -87 -141 -221 -303 -480 -119 -191 -281 -446 -379 -597 -18 -28 -33
-56 -33 -63 0 -7 17 -10 47 -8 l47 3 95 151 c53 83 145 228 204 322 l109 172
559 0 559 0 2 -322 3 -323 40 0 40 0 3 1223 2 1222 -85 0 -85 0 -43 -67z m123
-813 l0 -830 -525 0 c-289 0 -525 3 -525 8 0 4 62 105 138 224 344 545 461
731 527 833 40 61 140 219 224 353 84 133 155 242 157 242 2 0 4 -373 4 -830z"/>
<path d="M1669 7260 c-85 -89 -155 -165 -157 -170 -2 -4 12 -20 30 -35 18 -15
93 -85 167 -154 73 -69 134 -126 135 -126 2 0 74 76 161 168 90 96 154 172
148 175 -6 4 -79 72 -163 152 -84 80 -156 146 -160 148 -4 1 -77 -70 -161
-158z"/>
<path d="M6170 6118 c-6 -7 -77 -116 -157 -243 -80 -126 -225 -356 -323 -510
-97 -154 -253 -399 -345 -545 -92 -146 -182 -287 -200 -315 -82 -126 -495
-786 -495 -790 0 -3 21 -5 48 -5 l47 0 120 190 c66 104 134 211 150 238 17 26
54 85 83 130 l53 82 549 0 550 0 0 -320 0 -320 45 0 45 0 -2 1208 -3 1207 -77
3 c-53 2 -80 -1 -88 -10z m77 -1675 c-2 -2 -236 -2 -520 -1 l-517 3 231 365
c127 201 248 391 268 422 61 98 173 274 308 488 71 113 152 239 179 280 l49
75 3 -814 c1 -448 1 -816 -1 -818z"/>
<path d="M6675 6118 c-3 -7 -4 -551 -3 -1208 l3 -1195 43 -3 42 -3 -2 1208 -3
1208 -38 3 c-24 2 -39 -1 -42 -10z"/>
<path d="M8475 6088 c-16 -23 -125 -196 -243 -383 -118 -187 -252 -398 -298
-470 -46 -71 -118 -186 -162 -255 -43 -69 -137 -216 -208 -328 -71 -112 -133
-211 -139 -220 -17 -30 -174 -279 -312 -496 -73 -115 -133 -213 -133 -218 0
-5 21 -8 47 -6 l47 3 95 150 c53 83 143 226 201 318 l105 167 553 0 552 0 0
-320 0 -320 40 0 40 0 0 1210 0 1210 -79 0 -78 0 -28 -42z m105 -838 l0 -810
-520 0 c-286 0 -520 3 -520 8 0 4 29 52 64 107 36 55 94 147 130 205 36 58 90
142 118 188 29 45 113 178 187 295 186 293 338 533 376 592 18 28 57 89 88
138 31 48 61 87 67 87 7 0 10 -265 10 -810z"/>
<path d="M9007 6123 c-4 -3 -7 -548 -7 -1210 l0 -1204 43 3 42 3 3 1153 c1
633 5 1152 10 1152 4 0 27 -35 51 -78 24 -42 81 -138 126 -212 45 -74 196
-326 335 -560 139 -234 263 -441 276 -460 12 -19 62 -102 111 -185 49 -82 179
-300 288 -482 l199 -333 68 0 68 0 0 1210 0 1210 -40 0 -40 0 0 -1154 c0 -635
-4 -1157 -8 -1160 -5 -3 -71 99 -147 227 -77 128 -341 570 -588 982 -247 413
-492 822 -544 910 -53 88 -103 168 -111 178 -11 12 -30 17 -72 17 -31 0 -60
-3 -63 -7z"/>
<path d="M12317 6078 c-19 -29 -94 -147 -167 -263 -74 -115 -171 -268 -216
-340 -46 -71 -114 -179 -152 -240 -38 -60 -165 -261 -282 -445 -117 -184 -220
-348 -229 -363 -9 -15 -97 -155 -196 -310 -99 -155 -197 -309 -217 -342 l-37
-60 47 -3 c50 -4 58 3 107 85 11 19 94 151 184 293 l163 260 554 0 554 0 0
-320 0 -320 40 0 40 0 -2 1208 -3 1207 -76 3 -77 3 -35 -53z m113 -829 l0
-809 -520 0 c-311 0 -520 4 -520 9 0 9 61 107 233 376 35 55 103 163 152 240
49 77 108 169 130 205 23 36 123 193 222 350 280 444 284 450 294 444 5 -3 9
-345 9 -815z"/>
</g>
</svg>
